# Blender 5.2.2 LTS
# www.blender.org
o map
v 53.530262 9.676856 36.924679
v 52.916225 9.866959 36.173122
v -75.415161 -10.597242 25.980598
v -74.499756 -10.787345 26.007805
v 53.530262 -10.597239 36.924686
v 52.916225 -10.787342 36.173126
v -58.823208 -10.787356 -13.366864
v -60.054729 -10.787351 6.269386
v 0.000000 -10.787355 -11.733468
v 0.000000 -10.787351 7.902782
v 36.385029 -10.787355 -11.733468
v 32.333954 -10.787351 7.902782
v 36.385033 9.866945 -11.733474
v 32.333954 9.866950 7.902777
v 0.000000 9.866945 -11.733474
v 0.000000 9.866950 7.902777
v -58.823204 9.866944 -13.366870
v -60.054729 9.866950 6.269381
v -75.415161 9.676853 25.980589
v -74.499756 9.866956 26.007795
v 46.846947 9.866959 38.282478
v 46.644394 -10.787342 38.170536
v -19.867260 9.866944 -12.550172
v -19.867260 9.866950 7.086079
v -19.867262 -10.787356 -12.550166
v -19.867260 -10.787351 7.086084
v -18.085522 -10.787345 27.641327
v -18.085522 9.866956 27.641321
v -52.338963 -10.787345 27.054512
v 1.652176 -10.787345 27.696602
v 35.412773 -10.787345 28.586254
v 35.412773 9.866956 28.586248
v 1.652176 9.866956 27.696596
v -52.338970 9.866956 27.054506
v 45.862091 9.866945 -11.539023
v 47.223251 9.866950 6.736066
v 45.862087 -10.787355 -11.539020
v 47.223251 -10.787351 6.736070
v -37.092834 -10.787356 -12.958516
v 74.430984 9.866937 -40.298836
v 75.296379 9.676834 -41.189529
v 74.430984 -10.787364 -40.298828
v 75.296379 -10.597261 -41.189522
v 60.708191 9.866968 69.724556
v 61.412521 9.676866 70.875832
v 60.708191 -10.787333 69.724548
v 61.412521 -10.597230 70.875832
v -68.846977 9.866938 -37.970333
v -69.540604 9.676834 -38.933899
v -68.846977 -10.787363 -37.970325
v -69.540604 -10.597261 -38.933891
v -63.096771 9.866961 44.023796
v -63.661682 9.676858 44.760967
v -63.096771 -10.787340 44.023800
v -63.661682 -10.597238 44.760975
v 49.686935 -10.787359 -22.798840
v 49.815166 -10.597257 -23.766655
v 15.024230 -10.787359 -24.087402
v 14.972791 -10.597257 -25.050037
v -48.661015 -10.787362 -33.938560
v -48.718197 -10.597260 -34.850403
v 32.333950 9.866961 47.344307
v 32.333950 9.676859 48.500923
v 2.614360 9.866962 52.308674
v 2.781740 9.676861 53.476727
v -30.126009 9.866962 49.505280
v -30.009775 9.676860 50.306084
v -30.126005 -10.787338 49.505287
v -30.009771 -10.597236 50.306091
v 2.614360 -10.787338 52.308681
v 2.781740 -10.597235 53.476734
v 32.333954 -10.787339 47.344315
v 32.333954 -10.597237 48.500931
v -48.661011 9.866939 -33.938568
v -48.718193 9.676836 -34.850410
v 15.024230 9.866941 -24.087408
v 14.972791 9.676839 -25.050043
v 49.686939 9.866941 -22.798841
v 49.815170 9.676839 -23.766661
v -77.939224 -10.787356 -13.366864
v -78.835396 -10.597254 -13.366864
v -79.802628 -10.787351 6.269386
v -80.702126 -10.597248 6.269386
v 61.234070 9.866945 -10.276443
v 61.918102 9.676843 -10.177859
v 64.986443 9.866950 6.542248
v 65.645088 9.676847 6.606432
v -79.802628 9.866950 6.269377
v -80.702126 9.676847 6.269377
v -78.835396 9.676842 -13.366874
v -77.939224 9.866944 -13.366874
v 64.986443 -10.787351 6.542250
v 65.645088 -10.597248 6.606434
v 61.918102 -10.597253 -10.177857
v 61.234070 -10.787355 -10.276441
v -4.505569 -10.597260 -34.422611
v -4.505569 -10.787362 -33.499981
v -3.862626 9.676865 69.228935
v -4.147393 9.866967 68.307304
v -3.862624 -10.597231 69.228935
v -4.147391 -10.787333 68.307304
v -4.505567 9.676836 -34.422619
v -4.505567 9.866939 -33.499989
v 65.041313 9.676864 63.840023
v 64.125839 9.866966 63.305553
v 65.041313 -10.597232 63.840031
v 63.715122 -10.820761 62.898758
v 53.466541 -10.597230 71.537964
v 53.514462 -10.787333 70.500771
v 69.662987 9.676833 -44.689667
v 69.608772 9.866936 -43.829285
v 69.662987 -10.597262 -44.689659
v 69.608772 -10.787365 -43.829277
v 53.466537 9.676866 71.537964
v 53.514458 9.866968 70.500771
v -37.092831 -10.787351 6.677735
v -37.092831 9.866944 -12.958522
v -37.092831 9.866950 6.677730
v -35.293266 9.866956 27.347914
v -26.855522 -10.787362 -32.513672
v -26.884113 -10.597260 -33.430908
v -9.464409 9.866968 70.629662
v -9.263908 9.676866 71.490883
v -9.464407 -10.787333 70.629662
v -9.263906 -10.597230 71.490883
v -26.855518 9.866939 -32.513680
v -26.884109 9.676836 -33.430916
v -35.293262 -10.787345 27.347919
v 58.862541 9.676860 49.494068
v 58.417366 -10.787338 49.599205
v 58.905891 -10.597236 49.494076
v 58.330158 9.866962 49.511391
v 45.872456 9.866963 53.255875
v 45.351543 9.676861 53.845367
v 55.313328 9.866962 49.868183
v 49.651634 9.866963 52.598980
v 49.375019 -10.787338 51.696957
v 44.465237 -10.787338 51.802246
v 55.062775 -10.787338 49.612530
v 43.689735 -10.597236 52.134453
vn -0.0000 -1.0000 -0.0000
vn -0.0000 1.0000 -0.0000
vn 0.3341 -0.9321 -0.1397
vn 0.2704 -0.9620 0.0372
vn 0.3371 -0.9396 -0.0592
vn 0.3263 -0.9354 -0.1364
vn 0.2544 0.9669 0.0182
vn 0.2698 0.9622 0.0375
vn 0.3352 0.9404 -0.0579
vn 0.2541 0.9670 0.0191
vn -0.2064 -0.9783 0.0189
vn -0.1978 -0.9757 0.0938
vn -0.2005 -0.9764 0.0805
vn -0.2065 -0.9783 0.0160
vn 0.9967 -0.0000 0.0807
vn 0.9999 0.0005 -0.0113
vn -0.1140 -0.9776 0.1770
vn -0.1189 -0.9776 0.1736
vn 0.2253 0.9739 -0.0261
vn 0.0842 0.9889 0.1221
vn 0.0810 0.9889 0.1242
vn 0.1922 0.9812 0.0203
vn -0.1209 -0.9822 0.1438
vn 0.0780 -0.9904 0.1139
vn 0.0742 -0.9903 0.1172
vn -0.0654 -0.9860 0.1534
vn -0.1986 0.9789 -0.0475
vn -0.0726 0.9867 -0.1455
vn -0.0864 0.9868 -0.1370
vn -0.2002 0.9788 -0.0423
vn -0.0478 0.9809 -0.1887
vn 0.2094 0.9778 -0.0079
vn 0.1599 0.9838 -0.0808
vn -0.0227 0.9827 -0.1839
vn 0.2898 -0.9565 0.0320
vn 0.2094 -0.9778 -0.0079
vn 0.1599 -0.9838 -0.0808
vn 0.2895 -0.9568 0.0284
vn -0.0478 -0.9809 -0.1887
vn -0.0646 -0.9772 -0.2023
vn -0.1207 -0.9704 -0.2090
vn -0.0227 -0.9827 -0.1839
vn 0.0435 -0.9797 -0.1957
vn 0.0559 -0.9789 -0.1966
vn 0.0019 -0.9791 -0.2032
vn 0.0263 -0.9776 -0.2089
vn 0.0289 -0.9773 -0.2099
vn 0.0024 -0.9791 -0.2032
vn -0.0726 -0.9867 -0.1455
vn -0.0864 -0.9868 -0.1370
vn -0.1345 0.9799 0.1473
vn -0.1665 0.9726 0.1625
vn -0.1709 0.9720 0.1611
vn -0.0705 0.9852 0.1560
vn -0.0204 0.9847 0.1728
vn 0.0948 0.9844 0.1482
vn 0.1582 0.9779 0.1369
vn -0.0269 0.9843 0.1746
vn -0.0878 0.9699 0.2271
vn -0.1055 0.9649 0.2406
vn -0.1639 0.9544 0.2494
vn -0.0262 0.9767 0.2131
vn -0.1140 0.9776 0.1770
vn -0.1189 0.9776 0.1736
vn -0.1055 -0.9649 0.2406
vn -0.1639 -0.9544 0.2494
vn 0.1858 -0.9713 0.1485
vn 0.0948 -0.9844 0.1482
vn 0.1582 -0.9779 0.1369
vn 0.1429 -0.9760 0.1645
vn -0.0170 -0.9831 0.1825
vn -0.0213 -0.9826 0.1847
vn 0.0263 0.9776 -0.2089
vn 0.0289 0.9773 -0.2099
vn 0.0469 0.9785 -0.2009
vn 0.0435 0.9797 -0.1957
vn 0.0559 0.9789 -0.1966
vn 0.0370 0.9788 -0.2012
vn -0.0646 0.9772 -0.2023
vn -0.1207 0.9704 -0.2090
vn -0.1986 -0.9789 -0.0475
vn -0.2002 -0.9788 -0.0423
vn 0.2898 0.9565 0.0320
vn 0.2895 0.9568 0.0284
vn -0.1978 0.9757 0.0938
vn -0.2064 0.9783 0.0189
vn -0.2065 0.9783 0.0160
vn -0.2005 0.9764 0.0805
vn 0.2544 -0.9669 0.0182
vn 0.2541 -0.9670 0.0191
vn 0.0469 -0.9785 -0.2009
vn 0.0370 -0.9788 -0.2012
vn 0.1858 0.9713 0.1485
vn 0.1429 0.9760 0.1645
vn -0.0878 -0.9699 0.2271
vn -0.0262 -0.9767 0.2131
vn 0.0019 0.9791 -0.2032
vn 0.0024 0.9791 -0.2032
vn 0.3505 0.9249 -0.1470
vn 0.3371 0.9307 -0.1418
vn 0.2105 -0.9770 -0.0334
vn 0.1679 -0.9856 0.0219
vn -0.1732 -0.9720 0.1591
vn -0.1404 -0.9743 0.1764
vn 0.9542 -0.0000 -0.2991
vn 0.9955 -0.0000 0.0942
vn -0.1276 -0.0000 -0.9918
vn 0.5554 -0.0000 0.8316
vn -0.4961 0.0113 0.8682
vn 0.9994 0.0005 0.0354
vn -0.0005 -1.0000 -0.0002
vn -0.0005 -1.0000 0.0001
vn -0.4919 -0.0000 -0.8707
vn 0.1289 -0.0000 -0.9917
vn -0.9755 -0.0000 -0.2199
vn -0.5542 -0.0000 0.8324
vn -0.9169 -0.0000 0.3992
vn -0.4614 -0.0000 0.8872
vn -0.3779 -0.0000 -0.9259
vn 0.2403 -0.0000 -0.9707
vn 0.2007 -0.0000 -0.9796
vn 0.0103 -0.0000 -0.9999
vn -0.0929 -0.0132 0.9956
vn 0.6204 -0.0000 0.7843
vn -0.6768 -0.0033 0.7362
vn -0.6676 -0.0041 0.7445
vn 0.7062 -0.0000 0.7080
vn -0.1983 -0.0000 0.9801
vn -0.9965 -0.0000 0.0835
vn 0.9195 0.0010 -0.3931
vn -0.0000 -1.0000 -0.0016
vn -0.0017 -1.0000 0.0003
vn -0.0016 -1.0000 0.0005
vn -0.0018 -1.0000 0.0005
vt 0.293755 0.151428
vt 0.295997 0.214302
vt 0.254873 0.221895
vt 0.255422 0.155268
vt 0.293677 0.435939
vt 0.294291 0.473757
vt 0.255362 0.469458
vt 0.255357 0.432063
vt 0.331144 0.507147
vt 0.330644 0.547134
vt 0.294698 0.548832
vt 0.294462 0.506304
vt 0.335205 0.366515
vt 0.331234 0.437265
vt 0.295981 0.373065
vt 0.254825 0.365471
vt 0.335475 0.347818
vt 0.299545 0.343886
vt 0.331311 0.150148
vt 0.335188 0.220877
vt 0.212868 0.267026
vt 0.239659 0.257867
vt 0.238311 0.260099
vt 0.213351 0.268837
vt 0.301024 0.310928
vt 0.239600 0.329411
vt 0.238248 0.327177
vt 0.300872 0.308865
vt 0.331459 0.112550
vt 0.294415 0.113600
vt 0.235466 0.341820
vt 0.294255 0.584947
vt 0.258683 0.574904
vt 0.256601 0.534534
vt 0.299538 0.243452
vt 0.300994 0.276363
vt 0.235775 0.245055
vt 0.331329 0.080256
vt 0.294634 0.081040
vt 0.331326 0.474861
vt 0.255466 0.117849
vt 0.255576 0.084290
vt 0.370848 0.447933
vt 0.368538 0.489216
vt 0.255427 0.502996
vt 0.335437 0.239556
vt 0.294559 0.002363
vt 0.258952 0.012347
vt 0.258697 0.010075
vt 0.294477 0.000093
vt 0.294939 0.038495
vt 0.256799 0.052736
vt 0.173521 0.728272
vt 0.000274 0.728157
vt 0.000315 0.666104
vt 0.173562 0.666219
vt 0.227103 0.033046
vt 0.225215 0.031580
vt 0.188131 0.310777
vt 0.177119 0.316401
vt 0.174670 0.314895
vt 0.187220 0.308450
vt 0.176303 0.258784
vt 0.177112 0.270900
vt 0.174640 0.272403
vt 0.173839 0.258240
vt 0.329998 0.582052
vt 0.372349 0.566146
vt 0.374515 0.567743
vt 0.330140 0.584336
vt 0.395284 0.304919
vt 0.389653 0.296294
vt 0.391563 0.293783
vt 0.397700 0.305085
vt 0.333377 0.271050
vt 0.389490 0.291086
vt 0.391395 0.293597
vt 0.333125 0.273212
vt 0.395125 0.282479
vt 0.358255 0.247149
vt 0.360874 0.246964
vt 0.397538 0.282316
vt 0.356863 0.177483
vt 0.359341 0.177358
vt 0.368699 0.098254
vt 0.369654 0.057224
vt 0.371974 0.057015
vt 0.371054 0.098145
vt 0.372648 0.021312
vt 0.374818 0.019719
vt 0.176285 0.328421
vt 0.205805 0.344359
vt 0.204053 0.345840
vt 0.173839 0.328988
vt 0.217461 0.370948
vt 0.206853 0.430188
vt 0.204038 0.429514
vt 0.214690 0.371010
vt 0.176155 0.455638
vt 0.211880 0.492826
vt 0.209601 0.493077
vt 0.173839 0.455646
vt 0.226890 0.554161
vt 0.225001 0.555623
vt 0.211976 0.094401
vt 0.209696 0.094146
vt 0.179458 0.141455
vt 0.206888 0.157079
vt 0.204065 0.157753
vt 0.177088 0.142317
vt 0.217627 0.216549
vt 0.214812 0.216482
vt 0.369421 0.530240
vt 0.371739 0.530453
vt 0.356831 0.409960
vt 0.359311 0.410089
vt 0.373189 0.447918
vt 0.358327 0.340246
vt 0.360948 0.340434
vt 0.330311 0.005323
vt 0.330458 0.003039
vt 0.333447 0.316282
vt 0.333197 0.314118
vt 0.294169 0.587216
vt 0.258425 0.577175
vt 0.300841 0.278422
vt 0.370937 0.139541
vt 0.373278 0.139561
vt 0.179462 0.445770
vt 0.177096 0.444907
vt 0.176158 0.131571
vt 0.173839 0.131560
vt 0.370893 0.489329
vt 0.212928 0.320373
vt 0.213234 0.318486
vt 0.188858 0.275934
vt 0.187246 0.279031
vt 0.208667 0.240069
vt 0.207351 0.238128
vt 0.173457 0.825140
vt 0.000209 0.825025
vt 0.000252 0.760834
vt 0.173499 0.760949
vt 0.173448 0.837745
vt 0.000201 0.837630
vt 0.173609 0.595536
vt 0.000362 0.595420
vt 0.000372 0.580266
vt 0.173619 0.580381
vt 0.173599 0.610582
vt 0.000352 0.610467
vt 0.212442 0.326009
vt 0.207306 0.336988
vt 0.213025 0.260795
vt 0.209129 0.249772
vt 0.000165 0.124682
vt 0.000142 0.084353
vt 0.173389 0.084253
vt 0.173413 0.124582
vt 0.173443 0.176286
vt 0.000195 0.176386
vt 0.330896 0.040255
vt 0.173511 0.294670
vt 0.000264 0.294770
vt 0.000239 0.252662
vt 0.173487 0.252562
vt 0.173549 0.359491
vt 0.000301 0.359591
vt 0.173412 0.892558
vt 0.000164 0.892442
vt 0.000120 0.958709
vt 0.173368 0.958824
vt 0.173340 0.999907
vt 0.000093 0.999792
vt 0.173365 0.042667
vt 0.000118 0.042768
vt 0.000093 0.000193
vt 0.173340 0.000093
vt 0.000392 0.516526
vt 0.000359 0.459569
vt 0.173607 0.459468
vt 0.173640 0.516426
vt 0.000397 0.543271
vt 0.173653 0.539086
vt 0.000340 0.427076
vt 0.173588 0.426975
vt 0.173581 0.415846
vt 0.000334 0.415946
vt 0.173464 0.213775
vt 0.000217 0.213875
vt 0.173580 0.640237
vt 0.000332 0.640154
s 1
f 10/1/1 12/2/1 31/3/1 30/4/1
f 16/5/2 24/6/2 28/7/2 33/8/2
f 117/9/2 17/10/2 18/11/2 118/12/2
f 13/13/2 15/14/2 16/5/2 14/15/2
f 14/15/2 16/5/2 33/8/2 32/16/2
f 35/17/2 13/13/2 14/15/2 36/18/2
f 9/19/1 11/20/1 12/2/1 10/1/1
f 130/21/3 6/22/4 5/23/5 131/24/6
f 86/25/7 2/26/8 1/27/9 87/28/10
f 25/29/1 9/19/1 10/1/1 26/30/1
f 86/25/2 36/18/2 21/31/2 2/26/2
f 18/11/2 88/32/2 20/33/2 34/34/2
f 38/35/1 92/36/1 6/22/1 22/37/1
f 39/38/1 25/29/1 26/30/1 116/39/1
f 15/14/2 23/40/2 24/6/2 16/5/2
f 116/39/1 26/30/1 27/41/1 128/42/1
f 103/43/2 126/44/2 117/9/2 23/40/2
f 118/12/2 18/11/2 34/34/2 119/45/2
f 11/20/1 37/46/1 38/35/1 12/2/1
f 36/18/2 14/15/2 32/16/2 21/31/2
f 26/30/1 10/1/1 30/4/1 27/41/1
f 12/2/1 38/35/1 22/37/1 31/3/1
f 82/47/11 4/48/12 3/49/13 83/50/14
f 82/47/1 8/51/1 29/52/1 4/48/1
f 93/53/15 87/54/15 1/55/16 5/56/16
f 4/48/12 54/57/17 55/58/18 3/49/13
f 105/59/19 44/60/20 45/61/21 104/62/22
f 109/63/23 46/64/24 47/65/25 108/66/26
f 91/67/27 48/68/28 49/69/29 90/70/30
f 111/71/31 40/72/32 41/73/33 110/74/34
f 95/75/35 42/76/36 43/77/37 94/78/38
f 113/79/39 56/80/40 57/81/41 112/82/42
f 56/80/40 58/83/43 59/84/44 57/81/41
f 120/85/45 60/86/46 61/87/47 121/88/48
f 60/86/46 50/89/49 51/90/50 61/87/47
f 115/91/51 133/92/52 134/93/53 114/94/54
f 62/95/55 64/96/56 65/97/57 63/98/58
f 122/99/59 66/100/60 67/101/61 123/102/62
f 66/100/60 52/103/63 53/104/64 67/101/61
f 54/57/17 68/105/65 69/106/66 55/58/18
f 101/107/67 70/108/68 71/109/69 100/110/70
f 70/108/68 72/111/71 73/112/72 71/109/69
f 48/68/28 74/113/73 75/114/74 49/69/29
f 103/43/75 76/115/76 77/116/77 102/117/78
f 76/115/76 78/118/79 79/119/80 77/116/77
f 50/89/49 80/120/81 81/121/82 51/90/50
f 80/120/81 82/47/11 83/50/14 81/121/82
f 40/72/32 84/122/83 85/123/84 41/73/33
f 84/122/83 86/25/7 87/28/10 85/123/84
f 20/33/85 88/32/86 89/124/87 19/125/88
f 88/32/86 91/67/27 90/70/30 89/124/87
f 6/22/4 92/36/89 93/126/90 5/23/5
f 92/36/89 95/75/35 94/78/38 93/126/90
f 58/83/43 97/127/91 96/128/92 59/84/44
f 64/96/56 99/129/93 98/130/94 65/97/57
f 124/131/95 101/107/67 100/110/70 125/132/96
f 126/44/97 103/43/75 102/117/78 127/133/98
f 132/134/99 105/59/19 104/62/22 129/135/100
f 52/103/63 20/33/85 19/125/88 53/104/64
f 46/64/24 107/136/101 106/137/102 47/65/25
f 72/111/71 138/138/103 140/139/104 73/112/72
f 78/118/79 111/71/31 110/74/34 79/119/80
f 42/76/36 113/79/39 112/82/42 43/77/37
f 44/60/20 115/91/51 114/94/54 45/61/21
f 43/140/105 41/141/105 85/142/106 94/143/106
f 112/144/107 110/145/107 41/141/105 43/140/105
f 40/72/2 111/71/2 35/17/2 84/122/2
f 113/79/1 42/76/1 95/75/1 37/46/1
f 47/146/108 45/147/108 114/148/109 108/149/109
f 106/150/110 104/151/110 45/147/108 47/146/108
f 105/59/2 135/152/2 136/153/2 115/91/2 44/60/2
f 22/37/1 139/154/111 137/155/112
f 49/156/113 75/157/114 61/158/114 51/159/113
f 81/160/115 90/161/115 49/156/113 51/159/113
f 48/68/2 91/67/2 17/10/2 74/113/2
f 50/89/1 60/86/1 7/162/1 80/120/1
f 55/163/116 53/164/116 19/165/117 3/166/117
f 69/167/118 67/168/118 53/164/116 55/163/116
f 34/34/2 20/33/2 52/103/2 66/100/2
f 29/52/1 68/105/1 54/57/1 4/48/1
f 57/169/119 79/170/119 110/145/107 112/144/107
f 58/83/1 56/80/1 11/20/1 9/19/1
f 56/80/1 113/79/1 37/46/1 11/20/1
f 77/171/120 79/170/119 57/169/119 59/172/120
f 97/127/1 58/83/1 9/19/1 25/29/1
f 96/173/121 102/174/121 77/171/120 59/172/120
f 121/175/122 127/176/122 102/177/121 96/178/121
f 120/85/1 97/127/1 25/29/1 39/38/1
f 21/31/2 32/16/2 62/95/2 133/92/2 136/153/2
f 63/179/123 65/180/124 71/181/124 73/182/123
f 134/183/125 140/184/126 108/149/109 114/148/109
f 33/8/2 64/96/2 62/95/2 32/16/2
f 33/8/2 28/7/2 99/129/2 64/96/2
f 71/181/124 65/180/124 98/185/127 100/186/127
f 119/45/2 34/34/2 66/100/2 122/99/2
f 125/187/128 123/188/128 67/168/118 69/167/118
f 128/42/1 27/41/1 101/107/1 124/131/1
f 27/41/1 30/4/1 70/108/1 101/107/1
f 31/3/1 72/111/1 70/108/1 30/4/1
f 31/3/1 22/37/1 137/155/112 138/138/1 72/111/1
f 126/44/2 74/113/2 17/10/2 117/9/2
f 76/115/2 103/43/2 23/40/2 15/14/2
f 78/118/2 76/115/2 15/14/2 13/13/2
f 111/71/2 78/118/2 13/13/2 35/17/2
f 83/189/129 89/190/129 90/161/115 81/160/115
f 80/120/1 7/162/1 8/51/1 82/47/1
f 3/166/117 19/165/117 89/190/129 83/189/129
f 94/143/106 85/142/106 87/54/15 93/53/15
f 84/122/2 35/17/2 36/18/2 86/25/2
f 2/26/2 21/31/2 135/152/2 132/134/2
f 131/191/130 129/192/130 104/151/110 106/150/110
f 17/10/2 91/67/2 88/32/2 18/11/2
f 22/37/1 6/22/1 130/21/131 139/154/111
f 37/46/1 95/75/1 92/36/1 38/35/1
f 29/52/1 128/42/1 124/131/1 68/105/1
f 100/186/127 98/185/127 123/188/128 125/187/128
f 28/7/2 119/45/2 122/99/2 99/129/2
f 60/86/1 120/85/1 39/38/1 7/162/1
f 61/158/114 75/157/114 127/176/122 121/175/122
f 74/113/73 126/44/97 127/133/98 75/114/74
f 68/105/65 124/131/95 125/132/96 69/106/66
f 99/129/93 122/99/59 123/102/62 98/130/94
f 97/127/91 120/85/45 121/88/48 96/128/92
f 24/6/2 118/12/2 119/45/2 28/7/2
f 8/51/1 116/39/1 128/42/1 29/52/1
f 7/162/1 39/38/1 116/39/1 8/51/1
f 23/40/2 117/9/2 118/12/2 24/6/2
f 5/56/16 1/55/16 129/192/130 131/191/130
f 2/26/8 132/134/99 129/135/100 1/27/9
f 107/136/101 130/21/3 131/24/6 106/137/102
f 136/153/2 133/92/2 115/91/2
f 136/153/2 135/152/2 21/31/2
f 132/134/2 135/152/2 105/59/2
f 134/93/53 133/92/52 62/95/55 63/98/58
f 139/154/111 130/21/131 107/136/132
f 138/138/1 137/155/112 109/63/133
f 137/155/112 139/154/111 107/136/132 46/64/134 109/63/133
f 140/139/104 138/138/103 109/63/23 108/66/26
f 140/184/126 134/183/125 63/179/123 73/182/123
